<svg xmlns="http://www.w3.org/2000/svg" width="460" height="180" viewBox="0 0 460 180">
    <defs>
      <linearGradient id="bg" x1="0" y1="0" x2="1" y2="1">
        <stop offset="0" stop-color="#0b1220"/>
        <stop offset="1" stop-color="#111827"/>
      </linearGradient>
    </defs>
    <rect x="0" y="0" width="460" height="180" rx="18" fill="url(#bg)"/>
    <text x="24" y="34" font-family="ui-sans-serif,system-ui,-apple-system,Segoe UI,Roboto" font-size="16" font-weight="700" fill="#E5E7EB">Top Languages (public repos)</text>
    
    <text x="24" y="60" font-family="ui-sans-serif,system-ui" font-size="12" fill="#E5E7EB">TypeScript</text>
    <rect x="170" y="50" width="280" height="10" rx="5" fill="#1F2937"/>
    <rect x="170" y="50" width="280" height="10" rx="5" fill="#22C55E"/>
  
    <text x="24" y="78" font-family="ui-sans-serif,system-ui" font-size="12" fill="#E5E7EB">HTML</text>
    <rect x="170" y="68" width="280" height="10" rx="5" fill="#1F2937"/>
    <rect x="170" y="68" width="109" height="10" rx="5" fill="#22C55E"/>
  
    <text x="24" y="96" font-family="ui-sans-serif,system-ui" font-size="12" fill="#E5E7EB">JavaScript</text>
    <rect x="170" y="86" width="280" height="10" rx="5" fill="#1F2937"/>
    <rect x="170" y="86" width="76" height="10" rx="5" fill="#22C55E"/>
  
    <text x="24" y="114" font-family="ui-sans-serif,system-ui" font-size="12" fill="#E5E7EB">CSS</text>
    <rect x="170" y="104" width="280" height="10" rx="5" fill="#1F2937"/>
    <rect x="170" y="104" width="69" height="10" rx="5" fill="#22C55E"/>
  
    <text x="24" y="132" font-family="ui-sans-serif,system-ui" font-size="12" fill="#E5E7EB">Python</text>
    <rect x="170" y="122" width="280" height="10" rx="5" fill="#1F2937"/>
    <rect x="170" y="122" width="25" height="10" rx="5" fill="#22C55E"/>
  
  </svg>
